# xmcd
# 
# Track frame offsets:
#     150
#     23479
#     42814
#     82750
#     121384
#     153646
# 
# Disc length: 2339
# 
# Revision: 1
# Processed by: cddbd v1.5.2PL0 Copyright (c) Steve Scherf et al.
# Submitted via: fre:ac v1.0.31
# 
DISCID=38092106
DTITLE=Michael Nesmith - At The BBC Paris Theatre, November 27, 1975
DYEAR=2017
DGENRE=Rock/Pop
TTITLE0=Silver Moon
TTITLE1=Some of Shelly's Blues
TTITLE2=Joanne
TTITLE3=Dance Between The Raindrops
TTITLE4=Marie's Theme
TTITLE5=Closing Theme (Lampost)
EXTD=
EXTT0=
EXTT1=
EXTT2=
EXTT3=
EXTT4=
EXTT5=
PLAYORDER=
